<?xml version="1.0" encoding="utf-8"?>
<!-- Generator: Adobe Illustrator 25.0.0, SVG Export Plug-In . SVG Version: 6.00 Build 0)  -->
<svg version="1.1" id="Ebene_1" xmlns="http://www.w3.org/2000/svg" xmlns:xlink="http://www.w3.org/1999/xlink" x="0px" y="0px"
	 viewBox="0 0 405 91" style="enable-background:new 0 0 405 91;" xml:space="preserve">
<style type="text/css">
	.st0{fill:#B09E80;}
	.st1{fill:#E9E9E9;}
</style>
<path class="st0" d="M212.7,0.49L211.93,0l-2.01,2.45c-0.05-0.04-0.09-0.09-0.14-0.13c-1.02-0.81-4.71,2.14-3.05,4.03l-0.32,0.39
	h-15.62c-0.97,0-1.52,1.1-0.94,1.88l8.69,11.65c0.08,0.11,0.17,0.19,0.27,0.26v8.09c-2.99,0.08-5.32,0.67-5.32,1.39h5.32v0h1.33v0
	h5.32c0-0.72-2.33-1.31-5.32-1.39v-8.09c0.1-0.07,0.2-0.15,0.27-0.26l8.69-11.65c0.43-0.58,0.23-1.34-0.3-1.68
	c1.24-0.51,2.11-2.37,1.61-3.72L212.7,0.49z M198.5,17.07c-0.07,0.05-0.16,0.08-0.25,0.08c-0.13,0-0.26-0.06-0.34-0.17l-3.78-5.18
	c-0.14-0.19-0.1-0.45,0.09-0.59c0.19-0.14,0.45-0.1,0.59,0.09l3.78,5.18C198.73,16.67,198.69,16.93,198.5,17.07z M206.42,9.49
	l-0.77,1.03c-2.14,0.36-4.74,0.31-6.9,0.06c-1.82-0.21-3.96-0.18-5.47-0.12l-0.73-0.97c-0.42-0.56-0.02-1.35,0.68-1.35h12.51
	C206.43,8.14,206.83,8.94,206.42,9.49z"/>
<g>
	<path class="st1" d="M21.44,90.42c-4.26,0-7.99-0.87-11.2-2.62c-3.21-1.74-5.69-4.11-7.45-7.09c-1.76-2.98-2.65-6.36-2.65-10.13
		c0-3.04,0.61-5.86,1.83-8.46c1.22-2.6,2.87-4.88,4.96-6.85c2.09-1.97,4.46-3.5,7.12-4.59c2.66-1.1,5.45-1.64,8.37-1.64
		c2.15,0,3.93,0.12,5.35,0.37c1.42,0.24,2.7,0.59,3.83,1.04c1.14,0.45,2.27,0.95,3.41,1.52l0.67,11.38h-1.1l-5.78-9.43
		c-1.01-0.65-1.97-1.12-2.86-1.4c-0.89-0.28-1.97-0.43-3.23-0.43c-2.47,0-4.7,0.74-6.66,2.22c-1.97,1.48-3.52,3.57-4.65,6.27
		c-1.14,2.7-1.7,5.83-1.7,9.4c0,3.53,0.55,6.58,1.64,9.16c1.1,2.58,2.59,4.56,4.47,5.96s4.01,2.1,6.36,2.1
		c1.5,0,2.85-0.19,4.05-0.58c1.2-0.39,2.34-0.88,3.44-1.49l5.48-8.15h1.03l-0.85,10.28c-1.66,0.97-3.66,1.75-5.99,2.31
		C26.98,90.13,24.36,90.42,21.44,90.42z"/>
	<path class="st1" d="M57.1,90.42c-2.88,0-5.42-0.66-7.61-1.98c-2.19-1.32-3.89-3.07-5.11-5.26c-1.22-2.19-1.83-4.6-1.83-7.24
		c0-2.68,0.61-5.11,1.83-7.3c1.22-2.19,2.92-3.93,5.11-5.23c2.19-1.3,4.73-1.95,7.61-1.95c2.88,0,5.41,0.65,7.58,1.95
		c2.17,1.3,3.86,3.04,5.08,5.23c1.22,2.19,1.83,4.62,1.83,7.3c0,2.64-0.61,5.05-1.83,7.24c-1.22,2.19-2.91,3.95-5.08,5.26
		C62.5,89.76,59.98,90.42,57.1,90.42z M57.76,87.43c1.18,0,2.14-0.48,2.89-1.43c0.75-0.95,1.3-2.22,1.64-3.8
		c0.34-1.58,0.52-3.26,0.52-5.05c0-2.19-0.21-4.26-0.64-6.21c-0.43-1.95-1.1-3.53-2.01-4.75s-2.12-1.83-3.62-1.83
		c-1.22,0-2.21,0.48-2.98,1.43c-0.77,0.95-1.34,2.21-1.7,3.77c-0.37,1.56-0.55,3.26-0.55,5.08c0,2.23,0.22,4.31,0.67,6.24
		c0.45,1.93,1.15,3.5,2.1,4.72C55.04,86.83,56.26,87.43,57.76,87.43z"/>
	<path class="st1" d="M90.02,90.42c-2.6,0-4.89-0.55-6.88-1.64c-1.99-1.1-3.53-2.64-4.63-4.63c-1.1-1.99-1.64-4.3-1.64-6.94
		c0-3.08,0.64-5.81,1.92-8.18s3.06-4.23,5.35-5.57c2.29-1.34,4.96-2.01,8-2.01c1.91,0,3.63,0.26,5.17,0.79
		c1.54,0.53,2.7,1.26,3.47,2.19c0.65,0.77,0.97,1.38,0.97,1.83c0,0.49-0.26,0.97-0.79,1.46l-2.86,2.43h-0.43l-2.13-2.98
		c-0.69-0.93-1.38-1.67-2.07-2.22c-0.69-0.55-1.6-0.82-2.74-0.82c-1.87,0-3.28,0.92-4.23,2.77c-0.95,1.85-1.43,4.31-1.43,7.39
		c0,1.74,0.3,3.35,0.91,4.81c0.61,1.46,1.57,2.62,2.89,3.47c1.32,0.85,3.03,1.28,5.14,1.28c1.14,0,2.35-0.14,3.65-0.43
		c1.3-0.28,2.64-0.77,4.02-1.46h0.18v0.97c-1.01,2.15-2.55,3.94-4.59,5.35C95.24,89.71,92.81,90.42,90.02,90.42z"/>
	<path class="st1" d="M105.53,89.81v-0.97l4.08-1.95V51.11l-3.89-2.86v-0.73l11.68-3.35h0.73v29.76l9.13-8.34v-0.37l-2.98-2.19
		v-0.97h12.9v0.97l-3.89,2.13L125,71.67l11.14,15.09l3.89,2.07v0.97h-11.87l-1.89-3.16l-8.15-11.38v11.68l3.96,1.89v0.97H105.53z"/>
	<path class="st1" d="M152.94,90.42c-2.48,0-4.5-0.53-6.09-1.58c-1.58-1.05-2.37-2.54-2.37-4.44V64.8h-4.38v-0.85l5.6-1.89
		l6.15-6.69H153v6.69h8.46v2.74H153v18.07c0,1.05,0.45,1.83,1.34,2.31c0.89,0.49,1.95,0.73,3.16,0.73c0.77,0,1.45-0.05,2.04-0.15
		c0.59-0.1,1.17-0.21,1.73-0.33l0.18,0.12v1.04c-0.69,0.97-1.81,1.86-3.35,2.65C156.57,90.02,154.84,90.42,152.94,90.42z"/>
	<path class="st1" d="M172.16,90.36c-1.99,0-3.69-0.6-5.11-1.79c-1.42-1.2-2.09-2.93-2.01-5.2c0-1.46,0.28-2.71,0.85-3.74
		c0.57-1.03,1.56-1.94,2.98-2.71c1.42-0.77,3.41-1.48,5.96-2.13l5.72-1.4v-3.77c0-1.54-0.47-2.78-1.4-3.71
		c-0.93-0.93-2.13-1.4-3.59-1.4c-1.3,0-2.23,0.29-2.8,0.85c-0.57,0.57-0.85,1.42-0.85,2.56v2.8l-0.24,0.24h-4.02
		c-0.61,0-1.03-0.14-1.28-0.43c-0.24-0.28-0.37-0.77-0.37-1.46c0-0.89,0.36-1.76,1.06-2.62c0.71-0.85,1.65-1.64,2.83-2.37
		c1.46-0.93,2.83-1.6,4.11-2.01c1.28-0.41,2.67-0.61,4.17-0.61c1.99,0,3.81,0.26,5.48,0.79c1.66,0.53,2.99,1.37,3.99,2.53
		s1.49,2.65,1.49,4.47V85.3c0.65,0.65,1.62,0.97,2.92,0.97h1.76l0.18,0.18v0.85c-0.45,0.77-1.21,1.48-2.28,2.13
		s-2.46,0.97-4.17,0.97s-3.09-0.36-4.17-1.06c-1.08-0.71-1.9-1.73-2.46-3.07h-0.37c-1.01,1.14-2.23,2.1-3.65,2.89
		S173.91,90.36,172.16,90.36z M173.08,81.65c0,1.3,0.36,2.26,1.06,2.89c0.71,0.63,1.69,0.94,2.95,0.94c1.1,0,2.25-0.24,3.47-0.73
		v-8.95c-2.03,0.45-3.58,0.93-4.65,1.46c-1.08,0.53-1.82,1.14-2.22,1.83C173.28,79.79,173.08,80.64,173.08,81.65z"/>
	<path class="st1" d="M196.26,89.81v-0.97l4.08-1.95v-18.5l-3.89-2.86V64.8l11.74-3.35h0.73v25.44l3.59,1.95v0.97H196.26z
		 M204.47,55.43c-1.3,0-2.36-0.42-3.19-1.25c-0.83-0.83-1.25-1.88-1.25-3.13c0-1.3,0.42-2.36,1.25-3.2c0.83-0.83,1.9-1.25,3.19-1.25
		c1.3,0,2.36,0.42,3.2,1.25c0.83,0.83,1.25,1.9,1.25,3.2c0,1.26-0.42,2.3-1.25,3.13C206.84,55.01,205.77,55.43,204.47,55.43z"/>
	<path class="st1" d="M216.28,89.81v-0.97l4.08-1.95V51.11l-3.89-2.86v-0.73l11.74-3.35h0.73v42.72l3.59,1.95v0.97H216.28z"/>
	<path class="st1" d="M266.05,90.42c-2.68,0-5.04-0.27-7.09-0.82c-2.05-0.55-4.03-1.31-5.93-2.28l-0.61-10.28h1.09l4.32,7.48
		c1.1,0.89,2.28,1.58,3.56,2.07c1.28,0.49,2.59,0.73,3.92,0.73c2.19,0,3.97-0.52,5.35-1.55c1.38-1.03,2.07-2.57,2.07-4.59
		c0-1.38-0.32-2.51-0.94-3.41c-0.63-0.89-1.67-1.73-3.13-2.53c-1.46-0.79-3.47-1.75-6.02-2.89c-2.88-1.26-5.09-2.76-6.63-4.5
		c-1.54-1.74-2.31-3.92-2.31-6.51c0-1.62,0.42-3.17,1.25-4.66c0.83-1.48,1.95-2.8,3.35-3.96s2.96-2.06,4.69-2.71
		c1.72-0.65,3.5-0.97,5.32-0.97c2.07,0,4.06,0.24,5.96,0.73c1.91,0.49,3.67,1.18,5.29,2.07l0.61,9.74h-1.04l-4.26-6.88
		c-1.06-0.81-2.08-1.43-3.07-1.86c-1-0.43-2.12-0.64-3.38-0.64c-1.66,0-3.04,0.53-4.14,1.58c-1.09,1.05-1.64,2.46-1.64,4.2
		c0,1.66,0.6,3.03,1.79,4.11c1.2,1.08,3.28,2.28,6.24,3.62c3.69,1.7,6.41,3.45,8.15,5.23c1.74,1.79,2.62,4.14,2.62,7.06
		c0,2.6-0.75,4.83-2.25,6.69c-1.5,1.87-3.43,3.29-5.78,4.26C271.06,89.93,268.61,90.42,266.05,90.42z"/>
	<path class="st1" d="M298.06,90.42c-2.48,0-4.5-0.53-6.08-1.58s-2.37-2.54-2.37-4.44V64.8h-4.38v-0.85l5.6-1.89l6.15-6.69h1.16
		v6.69h8.46v2.74h-8.46v18.07c0,1.05,0.45,1.83,1.34,2.31c0.89,0.49,1.95,0.73,3.16,0.73c0.77,0,1.45-0.05,2.04-0.15
		c0.59-0.1,1.17-0.21,1.73-0.33l0.18,0.12v1.04c-0.69,0.97-1.81,1.86-3.35,2.65C301.69,90.02,299.97,90.42,298.06,90.42z"/>
	<path class="st1" d="M317.29,90.36c-1.99,0-3.69-0.6-5.11-1.79c-1.42-1.2-2.09-2.93-2.01-5.2c0-1.46,0.28-2.71,0.85-3.74
		c0.57-1.03,1.56-1.94,2.98-2.71c1.42-0.77,3.41-1.48,5.96-2.13l5.72-1.4v-3.77c0-1.54-0.47-2.78-1.4-3.71
		c-0.93-0.93-2.13-1.4-3.59-1.4c-1.3,0-2.23,0.29-2.8,0.85c-0.57,0.57-0.85,1.42-0.85,2.56v2.8l-0.24,0.24h-4.02
		c-0.61,0-1.03-0.14-1.28-0.43c-0.24-0.28-0.36-0.77-0.36-1.46c0-0.89,0.35-1.76,1.06-2.62c0.71-0.85,1.65-1.64,2.83-2.37
		c1.46-0.93,2.83-1.6,4.11-2.01c1.28-0.41,2.67-0.61,4.17-0.61c1.99,0,3.81,0.26,5.48,0.79c1.66,0.53,2.99,1.37,3.99,2.53
		s1.49,2.65,1.49,4.47V85.3c0.65,0.65,1.62,0.97,2.92,0.97h1.76l0.18,0.18v0.85c-0.45,0.77-1.21,1.48-2.28,2.13
		c-1.08,0.65-2.46,0.97-4.17,0.97c-1.7,0-3.09-0.36-4.17-1.06c-1.08-0.71-1.9-1.73-2.46-3.07h-0.37c-1.01,1.14-2.23,2.1-3.65,2.89
		S319.03,90.36,317.29,90.36z M318.2,81.65c0,1.3,0.35,2.26,1.06,2.89c0.71,0.63,1.69,0.94,2.95,0.94c1.1,0,2.25-0.24,3.47-0.73
		v-8.95c-2.03,0.45-3.58,0.93-4.66,1.46c-1.08,0.53-1.82,1.14-2.22,1.83C318.4,79.79,318.2,80.64,318.2,81.65z"/>
	<path class="st1" d="M354.83,90.42c-2.6,0-4.89-0.55-6.88-1.64c-1.99-1.1-3.53-2.64-4.63-4.63c-1.09-1.99-1.64-4.3-1.64-6.94
		c0-3.08,0.64-5.81,1.92-8.18c1.28-2.37,3.06-4.23,5.35-5.57c2.29-1.34,4.96-2.01,8-2.01c1.91,0,3.63,0.26,5.17,0.79
		c1.54,0.53,2.7,1.26,3.47,2.19c0.65,0.77,0.97,1.38,0.97,1.83c0,0.49-0.26,0.97-0.79,1.46l-2.86,2.43h-0.43l-2.13-2.98
		c-0.69-0.93-1.38-1.67-2.07-2.22c-0.69-0.55-1.6-0.82-2.74-0.82c-1.87,0-3.28,0.92-4.23,2.77c-0.95,1.85-1.43,4.31-1.43,7.39
		c0,1.74,0.3,3.35,0.91,4.81c0.61,1.46,1.57,2.62,2.89,3.47s3.03,1.28,5.14,1.28c1.13,0,2.35-0.14,3.65-0.43
		c1.3-0.28,2.64-0.77,4.02-1.46h0.18v0.97c-1.01,2.15-2.55,3.94-4.59,5.35C360.06,89.71,357.63,90.42,354.83,90.42z"/>
	<path class="st1" d="M370.35,89.81v-0.97l4.08-1.95V51.11l-3.89-2.86v-0.73l11.68-3.35h0.73v29.76l9.13-8.34v-0.37l-2.98-2.19
		v-0.97h12.9v0.97l-3.89,2.13l-8.28,6.51l11.14,15.09l3.89,2.07v0.97h-11.87l-1.89-3.16l-8.15-11.38v11.68l3.96,1.89v0.97H370.35z"
		/>
</g>
<g>
	<rect y="19.5" class="st0" width="169" height="2"/>
	<rect x="229" y="19.5" class="st0" width="176" height="2"/>
</g>
</svg>
